<svg width="41" height="40" viewBox="0 0 41 41" fill="none" xmlns="http://www.w3.org/2000/svg">
<path d="M27.3333 8.54167V22.2083C27.3333 24.0875 25.7958 25.625 23.9167 25.625H13.6667C11.7875 25.625 10.25 24.0875 10.25 22.2083V8.54167H27.3333ZM34.1667 5.125H6.83333V22.2083C6.83333 25.9838 9.89125 29.0417 13.6667 29.0417H23.9167C27.6921 29.0417 30.75 25.9838 30.75 22.2083V17.0833H34.1667C36.0629 17.0833 37.5833 15.5629 37.5833 13.6667V8.54167C37.5833 6.64542 36.0629 5.125 34.1667 5.125ZM30.75 13.6667V8.54167H34.1667V13.6667H30.75ZM34.1667 32.4583H3.41666V35.875H34.1667V32.4583Z" fill="#2F2F2F"/>
</svg>
